<svg xmlns="http://www.w3.org/2000/svg" viewBox="0 0 1098.34 1098.34"><defs><style>.cls-1{fill:none;stroke:#fff;stroke-miterlimit:10;}.cls-2{fill:#fff;}</style></defs><title>Bvp_C</title><g id="Layer_1" data-name="Layer 1"><rect class="cls-1" x="0.5" y="0.5" width="1097.34" height="1097.34"/></g><g id="Layer_2" data-name="Layer 2"><g id="P"><path class="cls-2" d="M815.82,66.53l-16.7,2-74.3,9v871.4l74.3-9V567.43l54.1-11.2c41.9-8.7,71.9-41.3,71.9-88.3V152c0-23.7,0-45.8-19.5-64.7-19-18.3-45-24.6-78.5-22.1Zm10.5,433.6-27.2,4.8V126l22-2.7a22.33,22.33,0,0,1,25,22.1v331A24.13,24.13,0,0,1,826.32,500.13Z" transform="translate(0.75 0.5)"/></g></g><g id="Layer_3" data-name="Layer 3"><g id="V"><polygon class="cls-2" points="671.87 83.43 667.87 141.33 615.07 899.23 610.67 962.23 499.37 975.73 494.87 913.83 440.77 168.93 436.57 112.03 515.07 102.43 518.17 159.53 556.37 865.63 592.77 150.43 595.77 92.63 671.87 83.43"/></g></g><g id="Layer_4" data-name="Layer 4"><g id="B"><path class="cls-2" d="M270.72,149.13l-26,3.2-73,8.9v871.4l73-8.9,11.1-1.4,27-3.3a98.78,98.78,0,0,0,86.9-98.1V658c0-47.6-32.2-70.1-77-67.1h0v-6.3h0c53.7-13.1,77-43.9,77-88.4V220.63c0-44.4-37.6-79-88.4-72.8Zm-26,812.1v-336l20.1-2.8a24.52,24.52,0,0,1,27.9,24.3v280.5a31.68,31.68,0,0,1-27.9,31.5Zm22.6-400.4-22.6,3.1V209.73l20-2.4a25,25,0,0,1,28,24.8v299.6A29.49,29.49,0,0,1,267.32,560.83Z" transform="translate(0.75 0.5)"/></g></g></svg>